# xmcd
#
# Track frame offsets:
#	150
#	12599
#	28247
#	43125
#	56081
#	70310
#	84272
#	95387
#	107686
#	123508
#
# Disc length: 1870 seconds
#
# Revision: 1
# Processed by: cddbd v1.5.2PL0 Copyright (c) Steve Scherf et al.
# Submitted via: audiograbber 1.83.01
#
DISCID=86074c0a
DTITLE=LeDoux,Chris - Melodies and Memories
DYEAR=1900
DGENRE=Country
TTITLE0=I Can't Ride The Broncs Anymore
TTITLE1=Melodies And Memories
TTITLE2=Even Cowboys Like A Little Rock And Roll
TTITLE3=Something In The Wind
TTITLE4=Copenhagen Junkie
TTITLE5=Working Cowboy Blues
TTITLE6=The Wild Bunch Rides Again
TTITLE7=The Rodeo Hand
TTITLE8=The Feeling Comes Back
TTITLE9=God Must Be A Cowboy
EXTD=
EXTT0=
EXTT1=
EXTT2=
EXTT3=
EXTT4=
EXTT5=
EXTT6=
EXTT7=
EXTT8=
EXTT9=
PLAYORDER=
